<svg width="16" height="16" viewBox="0 0 16 16" fill="none" xmlns="http://www.w3.org/2000/svg">
<path fill-rule="evenodd" clip-rule="evenodd" d="M15.286 1.58103C15.3849 1.33362 15.3271 1.05104 15.1388 0.862454C14.9506 0.673863 14.6681 0.615487 14.4205 0.714006L1.08718 6.01956C0.841428 6.11735 0.676727 6.35117 0.667408 6.6155C0.65809 6.87983 0.805917 7.12467 1.04417 7.23952L6.24956 9.74879L8.73193 14.9537C8.84591 15.1927 9.09052 15.3416 9.35516 15.3331C9.6198 15.3245 9.85431 15.1602 9.95265 14.9144L15.286 1.58103ZM6.61454 8.44456L2.99007 6.69738L11.9118 3.14727L6.61454 8.44456ZM7.55535 9.38936L9.28007 13.0057L12.8408 4.10394L7.55535 9.38936Z" fill="white"/>
</svg>
